<?xml version="1.0" encoding="UTF-8"?><svg id="a" xmlns="http://www.w3.org/2000/svg" viewBox="0 0 384.35 392.08"><defs><style>.b{fill:#47FFE7;}</style></defs><path class="b" d="M17.07,0c15.91,6.94,31.05,15.45,46.48,23.33,71.69,36.63,143.32,73.39,214.96,110.13,32.47,16.65,64.91,33.37,97.39,49.99,5.24,2.68,8.44,6.62,8.45,12.59,0,5.98-3.22,9.91-8.45,12.59-48.73,24.94-97.42,49.93-146.13,74.91-67.32,34.53-134.64,69.07-201.97,103.58-3.51,1.8-7.15,3.32-10.74,4.96h-5.36c-9.89-2.28-13.2-7.14-11.1-17.29,4.55-21.98,9.68-43.84,14.56-65.76,5.36-24.03,10.77-48.04,16.17-72.06,2.62-11.67,1.8-10.14,12.13-11.96,38.69-6.8,77.4-13.46,116.11-20.16,15.33-2.65,30.68-5.24,45.99-8,2.22-.4,4.45-.61,5.63-.76-15.22-2.51-31.44-5.36-47.68-8.17-38.21-6.6-76.4-13.3-114.62-19.82-3.02-.52-5.99-1.32-9.04-1.61-4.41-.42-6.68-2.65-7.6-7.08-2.23-10.74-4.72-21.43-7.15-32.12C17.41,93.33,9.95,59.32,2.24,25.36c-.65-2.86-1.26-5.73-1.78-8.62C-1.28,7.06,2.29,1.75,11.7,0h5.36Z"/></svg>